<svg width="8" height="13" viewBox="0 0 8 13" fill="none" xmlns="http://www.w3.org/2000/svg">
<g id="puma-logo 1" clip-path="url(#clip0_802_294)">
<path id="Vector" d="M13.4214 0.588004C13.3399 0.600204 13.2616 0.89145 13.1041 1.04317C12.989 1.15267 12.8452 1.14582 12.7689 1.2812C12.7399 1.33177 12.7493 1.4181 12.7164 1.50099C12.6522 1.66677 12.4258 1.68159 12.4258 1.86222C12.425 2.05728 12.6146 2.09454 12.7787 2.23294C12.9067 2.34435 12.9193 2.42115 13.0743 2.47514C13.2067 2.51889 13.4037 2.3759 13.5811 2.42724C13.7268 2.46946 13.8663 2.49987 13.8992 2.64512C13.9281 2.77897 13.8972 2.98656 13.7206 2.96262C13.661 2.95616 13.4029 2.87174 13.0857 2.90443C12.7031 2.94666 12.2664 3.06792 12.2237 3.48204C12.2002 3.7136 12.4951 3.98661 12.7798 3.9311C12.9768 3.89343 12.8836 3.66799 12.9909 3.55846C13.1315 3.41818 13.9281 4.04821 14.6687 4.04821C14.9805 4.04821 15.2123 3.97179 15.4427 3.73756C15.4642 3.71968 15.4904 3.68128 15.5237 3.67899C15.5551 3.68128 15.6099 3.7113 15.6279 3.72424C16.2244 4.18965 16.6752 5.12316 18.8672 5.13418C19.1754 5.13568 19.5267 5.27867 19.8134 5.53266C20.0692 5.76234 20.2188 6.11936 20.3641 6.48173C20.5834 7.02549 20.9766 7.55441 21.5727 8.14302C21.6052 8.17457 22.0959 8.54494 22.1351 8.57269C22.1414 8.57649 22.1774 8.66014 22.1649 8.70689C22.1504 9.05977 22.0975 10.086 22.8855 10.1324C23.0782 10.1419 23.0277 10.0104 23.0277 9.91986C23.0273 9.74114 22.9936 9.56357 23.0907 9.38068C23.2235 9.12898 22.8091 9.01299 22.8213 8.46887C22.8299 8.06316 22.479 8.13234 22.3008 7.82322C22.1982 7.64412 22.1069 7.54909 22.1136 7.33003C22.1535 6.09733 21.8433 5.28741 21.6886 5.08855C21.568 4.93835 21.4681 4.87866 21.5786 4.80907C22.2362 4.38739 22.3854 3.99496 22.3854 3.99496C22.7351 3.19685 23.0496 2.46791 23.4832 2.14702C23.5705 2.08083 23.7945 1.91849 23.932 1.8546C24.3365 1.66942 24.5496 1.55727 24.6671 1.44621C24.8531 1.27017 25 0.903241 24.8218 0.680801C24.6001 0.406258 24.2167 0.62414 24.0475 0.721468C22.8385 1.4181 22.6603 2.64701 22.2416 3.35275C21.9076 3.91663 21.3643 4.33072 20.8787 4.36457C20.5145 4.3908 20.122 4.31932 19.7312 4.15277C18.7807 3.74821 18.2605 3.22576 18.138 3.13337C17.8826 2.9421 15.9001 1.05267 14.2939 0.975486C14.2939 0.975486 14.0946 0.588031 14.0445 0.581563C13.9269 0.567097 13.8067 0.813119 13.7206 0.841667C13.6395 0.867869 13.5032 0.575094 13.4214 0.588031V0.588004ZM6.35056 11.8648C6.19937 11.8614 6.07093 11.7408 6.07093 11.5918L6.07132 6.72775H4.42014V12.0895C4.42014 12.3523 4.63944 12.5667 4.9085 12.5667H7.79456C8.06556 12.5667 8.28217 12.3523 8.28217 12.0895V6.72775H6.63255L6.63098 11.5918C6.63098 11.7408 6.50251 11.8614 6.35056 11.8648ZM11.879 6.72775H9.37994C9.08426 6.72775 8.8434 6.96122 8.8434 7.25135V12.5667H10.4961V7.69093C10.4973 7.5415 10.6218 7.42324 10.7754 7.42324C10.9297 7.42324 11.0534 7.53883 11.0569 7.68675V12.5667H12.703V7.6867C12.705 7.5388 12.8288 7.42321 12.9827 7.42321C13.1354 7.42321 13.2615 7.54147 13.2627 7.6909V12.5667H14.9155V7.25135C14.9155 6.96122 14.6742 6.72775 14.3785 6.72775H11.879ZM2.21045 7.70117C2.21163 7.5388 2.07534 7.42321 1.93082 7.42321H1.6504V10.3765H1.93082C2.07652 10.3765 2.21166 10.264 2.21045 10.1024V7.70117ZM3.31843 11.0994H1.6504V12.5667H0V6.72775H3.32903C3.62704 6.72775 3.85967 6.96275 3.85967 7.25364V10.5735C3.85967 10.8648 3.61804 11.0994 3.31843 11.0994ZM20.5791 11.261C20.2474 11.261 19.9689 11.5393 19.9689 11.8766C19.9689 12.215 20.2474 12.491 20.5897 12.491C20.9292 12.491 21.2042 12.215 21.2042 11.8766C21.2042 11.5385 20.9292 11.261 20.5896 11.261H20.5791ZM21.3224 11.8747C21.3224 12.2713 20.995 12.5937 20.5897 12.5937C20.18 12.5937 19.851 12.2736 19.851 11.8747C19.851 11.4834 20.18 11.1564 20.5775 11.1564C20.995 11.1564 21.3224 11.4736 21.3224 11.8747Z" fill="#1D1E20"/>
</g>
<defs>
<clipPath id="clip0_802_294">
<rect width="25" height="13" fill="white"/>
</clipPath>
</defs>
</svg>
