<svg width="25" height="25" viewBox="0 0 25 25" fill="none" xmlns="http://www.w3.org/2000/svg">
<g id="Heart">
<path id="Vector" fill-rule="evenodd" clip-rule="evenodd" d="M12.2509 21.7227C9.98984 20.3311 7.88641 18.6933 5.97826 16.8388C4.63675 15.503 3.61547 13.8748 2.99265 12.0785C1.87186 8.59408 3.18101 4.60503 6.84475 3.4245C8.77026 2.80462 10.8732 3.15891 12.4958 4.37654C14.1189 3.1604 16.2212 2.80623 18.1468 3.4245C21.8106 4.60503 23.1291 8.59408 22.0083 12.0785C21.3855 13.8748 20.3642 15.503 19.0226 16.8388C17.1145 18.6933 15.0111 20.3311 12.75 21.7227L12.5051 21.875L12.2509 21.7227Z" stroke="#1D1E20" stroke-width="1.5" stroke-linecap="round" stroke-linejoin="round"/>
<path id="Vector_2" d="M16.395 7.34689C17.5047 7.70137 18.2931 8.69762 18.3917 9.86979" stroke="#1D1E20" stroke-width="1.5" stroke-linecap="round" stroke-linejoin="round"/>
</g>
</svg>
